<svg xmlns="http://www.w3.org/2000/svg" width="1600" height="1000" viewBox="0 0 1600 1000" role="img" aria-labelledby="title desc">
  <title id="title">Education and Certifications</title>
  <desc id="desc">Credential-focused visual for emergency and disaster management qualifications.</desc>
  <defs>
    <linearGradient id="bg" x1="0" y1="0" x2="1" y2="1">
      <stop offset="0%" stop-color="#0b1220" />
      <stop offset="100%" stop-color="#1f3c73" />
    </linearGradient>
    <linearGradient id="card" x1="0" y1="0" x2="0" y2="1">
      <stop offset="0%" stop-color="#243f77" />
      <stop offset="100%" stop-color="#1a2f56" />
    </linearGradient>
    <filter id="shadow" x="-20%" y="-20%" width="140%" height="140%">
      <feDropShadow dx="0" dy="10" stdDeviation="16" flood-color="#000000" flood-opacity="0.35" />
    </filter>
  </defs>

  <rect width="1600" height="1000" fill="url(#bg)" />
  <circle cx="1300" cy="140" r="220" fill="#3d6cc5" opacity="0.18" />
  <circle cx="240" cy="890" r="260" fill="#5b8df0" opacity="0.15" />

  <g transform="translate(120,120)" filter="url(#shadow)">
    <rect x="0" y="0" width="1360" height="760" rx="28" fill="url(#card)" stroke="#4d74bf" stroke-opacity="0.45" />

    <text x="56" y="92" fill="#9dc2ff" font-family="Manrope, Segoe UI, Arial, sans-serif" font-size="30" font-weight="700" letter-spacing="3">
      EDUCATION &amp; CERTIFICATIONS
    </text>
    <text x="56" y="152" fill="#ffffff" font-family="Manrope, Segoe UI, Arial, sans-serif" font-size="58" font-weight="800">
      Command-Ready Professional Credentials
    </text>

    <g transform="translate(56,208)">
      <rect x="0" y="0" width="1248" height="106" rx="18" fill="#11233f" stroke="#7ca3ea" stroke-opacity="0.5" />
      <circle cx="52" cy="53" r="24" fill="#65a0ff" />
      <path d="M40 53 L50 63 L66 45" stroke="#ffffff" stroke-width="6" fill="none" stroke-linecap="round" stroke-linejoin="round" />
      <text x="92" y="62" fill="#ffffff" font-family="Manrope, Segoe UI, Arial, sans-serif" font-size="34" font-weight="700">
        Master's degree, Emergency &amp; Disaster Management (with honors)
      </text>
    </g>

    <g transform="translate(56,340)">
      <rect x="0" y="0" width="1248" height="94" rx="18" fill="#11233f" stroke="#7ca3ea" stroke-opacity="0.5" />
      <circle cx="52" cy="47" r="24" fill="#65a0ff" />
      <path d="M40 47 L50 57 L66 39" stroke="#ffffff" stroke-width="6" fill="none" stroke-linecap="round" stroke-linejoin="round" />
      <text x="92" y="56" fill="#ffffff" font-family="Manrope, Segoe UI, Arial, sans-serif" font-size="34" font-weight="700">
        NREMT-A, FLEMT, NAEMT
      </text>
    </g>

    <g transform="translate(56,460)">
      <rect x="0" y="0" width="1248" height="94" rx="18" fill="#11233f" stroke="#7ca3ea" stroke-opacity="0.5" />
      <circle cx="52" cy="47" r="24" fill="#65a0ff" />
      <path d="M40 47 L50 57 L66 39" stroke="#ffffff" stroke-width="6" fill="none" stroke-linecap="round" stroke-linejoin="round" />
      <text x="92" y="56" fill="#ffffff" font-family="Manrope, Segoe UI, Arial, sans-serif" font-size="34" font-weight="700">
        TCCC, TECC and First Responder Instructor
      </text>
    </g>

    <g transform="translate(56,580)">
      <rect x="0" y="0" width="1248" height="106" rx="18" fill="#11233f" stroke="#7ca3ea" stroke-opacity="0.5" />
      <circle cx="52" cy="53" r="24" fill="#65a0ff" />
      <path d="M40 53 L50 63 L66 45" stroke="#ffffff" stroke-width="6" fill="none" stroke-linecap="round" stroke-linejoin="round" />
      <text x="92" y="62" fill="#ffffff" font-family="Manrope, Segoe UI, Arial, sans-serif" font-size="34" font-weight="700">
        Extensive FEMA certification portfolio
      </text>
    </g>
  </g>
</svg>
